<svg width="14" height="15" viewBox="0 0 14 15" fill="none" xmlns="http://www.w3.org/2000/svg">
<path d="M1.75 5.75H12.25M4.08333 2.25V3.41667M9.91667 2.25V3.41667M3.5 7.5H4.66667M6.41667 7.5H7.58333M9.33333 7.5H10.5M3.5 9.25H4.66667M6.41667 9.25H7.58333M9.33333 9.25H10.5M3.5 11H4.66667M6.41667 11H7.58333M9.33333 11H10.5M3.61667 12.75H10.3833C11.0367 12.75 11.3635 12.75 11.613 12.6228C11.8325 12.511 12.011 12.3325 12.1228 12.113C12.25 11.8635 12.25 11.5367 12.25 10.8833V5.28333C12.25 4.62994 12.25 4.30324 12.1228 4.05368C12.011 3.83415 11.8325 3.65568 11.613 3.54383C11.3635 3.41667 11.0367 3.41667 10.3833 3.41667H3.61667C2.96327 3.41667 2.63657 3.41667 2.38701 3.54383C2.16749 3.65568 1.98901 3.83415 1.87716 4.05368C1.75 4.30324 1.75 4.62994 1.75 5.28333V10.8833C1.75 11.5367 1.75 11.8635 1.87716 12.113C1.98901 12.3325 2.16749 12.511 2.38701 12.6228C2.63657 12.75 2.96327 12.75 3.61667 12.75Z" stroke="#494949" stroke-linecap="round"/>
</svg>
