<svg width="33" height="33" viewBox="0 0 33 33" fill="none" xmlns="http://www.w3.org/2000/svg">
<path d="M33 16.5C33 7.3873 25.6127 0 16.5 0C7.3873 0 0 7.3873 0 16.5C0 25.6127 7.3873 33 16.5 33C25.6127 33 33 25.6127 33 16.5Z" fill="white"/>
<path fill-rule="evenodd" clip-rule="evenodd" d="M9.266 10.4039H11.0948L11.7044 9.18473C12.0635 8.47576 12.2506 7.96552 12.9236 7.96552H20.2389C20.9119 7.96552 21.135 8.54708 21.4581 9.18473L22.0677 10.4039H23.8965C25.2432 10.4039 26.335 11.4957 26.335 12.8424V22.5961C26.335 23.9427 25.2432 25.0345 23.8965 25.0345H9.266C7.91938 25.0345 6.82757 23.9427 6.82757 22.5961V12.8424C6.82757 11.4957 7.91938 10.4039 9.266 10.4039ZM16.5813 22.5961C19.2745 22.5961 21.4581 20.4124 21.4581 17.7192C21.4581 15.026 19.2745 12.8424 16.5813 12.8424C13.888 12.8424 11.7044 15.026 11.7044 17.7192C11.7044 20.4124 13.888 22.5961 16.5813 22.5961ZM16.5813 14.0616C18.6009 14.0616 20.2389 15.6996 20.2389 17.7192C20.2389 19.7388 18.6009 21.3768 16.5813 21.3768C14.5616 21.3768 12.9236 19.7388 12.9236 17.7192C12.9236 15.6996 14.5616 14.0616 16.5813 14.0616Z" fill="#50C2C9"/>
</svg>
