<svg width="43" height="46" viewBox="0 0 43 46" fill="none" xmlns="http://www.w3.org/2000/svg">
<path d="M38 0H5C2.23858 0 0 2.23858 0 5V41C0 43.7614 2.23858 46 5 46H38C40.7614 46 43 43.7614 43 41V5C43 2.23858 40.7614 0 38 0Z" fill="#222831"/>
<path fill-rule="evenodd" clip-rule="evenodd" d="M21.5 22.1429C19.3258 22.1429 17.5625 20.4155 17.5625 18.2857C17.5625 16.1559 19.3258 14.4286 21.5 14.4286C23.6742 14.4286 25.4375 16.1559 25.4375 18.2857C25.4375 20.4155 23.6742 22.1429 21.5 22.1429ZM21.5 13.1429C18.6007 13.1429 16.25 15.4456 16.25 18.2857C16.25 21.1259 18.6007 23.4286 21.5 23.4286C24.3993 23.4286 26.75 21.1259 26.75 18.2857C26.75 15.4456 24.3993 13.1429 21.5 13.1429ZM30.6875 23.4286C30.6875 24.1383 30.0995 24.7143 29.375 24.7143H13.625C12.9005 24.7143 12.3125 24.1383 12.3125 23.4286V13.1429C12.3125 12.4331 12.9005 11.8571 13.625 11.8571H14.8065C15.6924 11.8571 16.5035 11.3605 16.9062 10.5714C17.3702 9.82379 17.4942 9.28571 18.2188 9.28571H24.7812C25.5057 9.28571 25.6298 9.82379 26.0938 10.5714C26.4965 11.3605 27.3076 11.8571 28.1935 11.8571H29.375C30.0995 11.8571 30.6875 12.4331 30.6875 13.1429V23.4286ZM29.375 10.5714H28.8498C27.9639 10.5714 27.1527 10.0748 26.75 9.28571C26.3635 8.53807 26.162 8 25.4375 8H17.5625C16.838 8 16.5978 8.61329 16.25 9.28571C15.8473 10.0748 15.0361 10.5714 14.1502 10.5714H13.625C12.1753 10.5714 11 11.7228 11 13.1429V23.4286C11 24.8486 12.1753 26 13.625 26H29.375C30.8247 26 32 24.8486 32 23.4286V13.1429C32 11.7228 30.8247 10.5714 29.375 10.5714Z" fill="#50C2C9"/>
<path d="M2.57275 36.859C2.57275 36.247 2.71375 35.698 2.99575 35.212C3.28375 34.726 3.67075 34.348 4.15675 34.078C4.64875 33.802 5.18575 33.664 5.76775 33.664C6.43375 33.664 7.02475 33.829 7.54075 34.159C8.06275 34.483 8.44075 34.945 8.67475 35.545H7.44175C7.27975 35.215 7.05475 34.969 6.76675 34.807C6.47875 34.645 6.14575 34.564 5.76775 34.564C5.35375 34.564 4.98475 34.657 4.66075 34.843C4.33675 35.029 4.08175 35.296 3.89575 35.644C3.71575 35.992 3.62575 36.397 3.62575 36.859C3.62575 37.321 3.71575 37.726 3.89575 38.074C4.08175 38.422 4.33675 38.692 4.66075 38.884C4.98475 39.07 5.35375 39.163 5.76775 39.163C6.14575 39.163 6.47875 39.082 6.76675 38.92C7.05475 38.758 7.27975 38.512 7.44175 38.182H8.67475C8.44075 38.782 8.06275 39.244 7.54075 39.568C7.02475 39.892 6.43375 40.054 5.76775 40.054C5.17975 40.054 4.64275 39.919 4.15675 39.649C3.67075 39.373 3.28375 38.992 2.99575 38.506C2.71375 38.02 2.57275 37.471 2.57275 36.859ZM9.53368 37.498C9.53368 37 9.63568 36.559 9.83968 36.175C10.0497 35.791 10.3317 35.494 10.6857 35.284C11.0457 35.068 11.4417 34.96 11.8737 34.96C12.2637 34.96 12.6027 35.038 12.8907 35.194C13.1847 35.344 13.4187 35.533 13.5927 35.761V35.041H14.6277V40H13.5927V39.262C13.4187 39.496 13.1817 39.691 12.8817 39.847C12.5817 40.003 12.2397 40.081 11.8557 40.081C11.4297 40.081 11.0397 39.973 10.6857 39.757C10.3317 39.535 10.0497 39.229 9.83968 38.839C9.63568 38.443 9.53368 37.996 9.53368 37.498ZM13.5927 37.516C13.5927 37.174 13.5207 36.877 13.3767 36.625C13.2387 36.373 13.0557 36.181 12.8277 36.049C12.5997 35.917 12.3537 35.851 12.0897 35.851C11.8257 35.851 11.5797 35.917 11.3517 36.049C11.1237 36.175 10.9377 36.364 10.7937 36.616C10.6557 36.862 10.5867 37.156 10.5867 37.498C10.5867 37.84 10.6557 38.14 10.7937 38.398C10.9377 38.656 11.1237 38.854 11.3517 38.992C11.5857 39.124 11.8317 39.19 12.0897 39.19C12.3537 39.19 12.5997 39.124 12.8277 38.992C13.0557 38.86 13.2387 38.668 13.3767 38.416C13.5207 38.158 13.5927 37.858 13.5927 37.516ZM21.9783 34.96C22.3683 34.96 22.7163 35.041 23.0223 35.203C23.3343 35.365 23.5773 35.605 23.7513 35.923C23.9313 36.241 24.0213 36.625 24.0213 37.075V40H23.0043V37.228C23.0043 36.784 22.8933 36.445 22.6713 36.211C22.4493 35.971 22.1463 35.851 21.7623 35.851C21.3783 35.851 21.0723 35.971 20.8443 36.211C20.6223 36.445 20.5113 36.784 20.5113 37.228V40H19.4943V37.228C19.4943 36.784 19.3833 36.445 19.1613 36.211C18.9393 35.971 18.6363 35.851 18.2523 35.851C17.8683 35.851 17.5623 35.971 17.3343 36.211C17.1123 36.445 17.0013 36.784 17.0013 37.228V40H15.9753V35.041H17.0013V35.608C17.1693 35.404 17.3823 35.245 17.6403 35.131C17.8983 35.017 18.1743 34.96 18.4683 34.96C18.8643 34.96 19.2183 35.044 19.5303 35.212C19.8423 35.38 20.0823 35.623 20.2503 35.941C20.4003 35.641 20.6343 35.404 20.9523 35.23C21.2703 35.05 21.6123 34.96 21.9783 34.96ZM29.8719 37.399C29.8719 37.585 29.8599 37.753 29.8359 37.903H26.0469C26.0769 38.299 26.2239 38.617 26.4879 38.857C26.7519 39.097 27.0759 39.217 27.4599 39.217C28.0119 39.217 28.4019 38.986 28.6299 38.524H29.7369C29.5869 38.98 29.3139 39.355 28.9179 39.649C28.5279 39.937 28.0419 40.081 27.4599 40.081C26.9859 40.081 26.5599 39.976 26.1819 39.766C25.8099 39.55 25.5159 39.25 25.2999 38.866C25.0899 38.476 24.9849 38.026 24.9849 37.516C24.9849 37.006 25.0869 36.559 25.2909 36.175C25.5009 35.785 25.7919 35.485 26.1639 35.275C26.5419 35.065 26.9739 34.96 27.4599 34.96C27.9279 34.96 28.3449 35.062 28.7109 35.266C29.0769 35.47 29.3619 35.758 29.5659 36.13C29.7699 36.496 29.8719 36.919 29.8719 37.399ZM28.8009 37.075C28.7949 36.697 28.6599 36.394 28.3959 36.166C28.1319 35.938 27.8049 35.824 27.4149 35.824C27.0609 35.824 26.7579 35.938 26.5059 36.166C26.2539 36.388 26.1039 36.691 26.0559 37.075H28.8009ZM31.9075 35.761C32.0575 35.509 32.2555 35.314 32.5015 35.176C32.7535 35.032 33.0505 34.96 33.3925 34.96V36.022H33.1315C32.7295 36.022 32.4235 36.124 32.2135 36.328C32.0095 36.532 31.9075 36.886 31.9075 37.39V40H30.8815V35.041H31.9075V35.761ZM33.9936 37.498C33.9936 37 34.0956 36.559 34.2996 36.175C34.5096 35.791 34.7916 35.494 35.1456 35.284C35.5056 35.068 35.9016 34.96 36.3336 34.96C36.7236 34.96 37.0626 35.038 37.3506 35.194C37.6446 35.344 37.8786 35.533 38.0526 35.761V35.041H39.0876V40H38.0526V39.262C37.8786 39.496 37.6416 39.691 37.3416 39.847C37.0416 40.003 36.6996 40.081 36.3156 40.081C35.8896 40.081 35.4996 39.973 35.1456 39.757C34.7916 39.535 34.5096 39.229 34.2996 38.839C34.0956 38.443 33.9936 37.996 33.9936 37.498ZM38.0526 37.516C38.0526 37.174 37.9806 36.877 37.8366 36.625C37.6986 36.373 37.5156 36.181 37.2876 36.049C37.0596 35.917 36.8136 35.851 36.5496 35.851C36.2856 35.851 36.0396 35.917 35.8116 36.049C35.5836 36.175 35.3976 36.364 35.2536 36.616C35.1156 36.862 35.0466 37.156 35.0466 37.498C35.0466 37.84 35.1156 38.14 35.2536 38.398C35.3976 38.656 35.5836 38.854 35.8116 38.992C36.0456 39.124 36.2916 39.19 36.5496 39.19C36.8136 39.19 37.0596 39.124 37.2876 38.992C37.5156 38.86 37.6986 38.668 37.8366 38.416C37.9806 38.158 38.0526 37.858 38.0526 37.516Z" fill="white"/>
</svg>
