<svg width="43" height="46" viewBox="0 0 43 46" fill="none" xmlns="http://www.w3.org/2000/svg">
<path d="M38 0H5C2.23858 0 0 2.23858 0 5V41C0 43.7614 2.23858 46 5 46H38C40.7614 46 43 43.7614 43 41V5C43 2.23858 40.7614 0 38 0Z" fill="#222831"/>
<path d="M27.7392 26H15.2557C14.127 26 13.0446 25.6156 12.2465 24.9313C11.4484 24.2471 11 23.319 11 22.3514V11.6486C11 10.681 11.4484 9.75292 12.2465 9.06866C13.0446 8.38441 14.127 8 15.2557 8H27.7392C28.8679 8 29.9504 8.38441 30.7485 9.06866C31.5466 9.75292 31.995 10.681 31.995 11.6486V22.3514C31.995 23.319 31.5466 24.2471 30.7485 24.9313C29.9504 25.6156 28.8679 26 27.7392 26ZM15.2557 9.45946C14.5785 9.45946 13.929 9.69011 13.4502 10.1007C12.9713 10.5112 12.7023 11.068 12.7023 11.6486V22.3514C12.7023 22.932 12.9713 23.4888 13.4502 23.8993C13.929 24.3099 14.5785 24.5405 15.2557 24.5405H27.7392C28.4164 24.5405 29.0659 24.3099 29.5448 23.8993C30.0236 23.4888 30.2927 22.932 30.2927 22.3514V11.6486C30.2927 11.068 30.0236 10.5112 29.5448 10.1007C29.0659 9.69011 28.4164 9.45946 27.7392 9.45946H15.2557Z" fill="#50C2C9"/>
<path d="M11.8512 21.9232C11.7258 21.9231 11.602 21.8995 11.4883 21.8542C11.3746 21.8088 11.2739 21.7427 11.193 21.6605C11.0681 21.5151 11.0106 21.3351 11.0316 21.1554C11.0525 20.9756 11.1505 20.809 11.3065 20.6876L16.6404 16.893C17.5067 16.277 18.6223 15.9803 19.7432 16.0678C20.8641 16.1553 21.8988 16.6199 22.6211 17.36L23.8921 18.6638C24.1103 18.8878 24.3786 19.0722 24.6812 19.2061C24.9837 19.3399 25.3144 19.4205 25.6538 19.4432C25.9933 19.4659 26.3345 19.4301 26.6576 19.338C26.9807 19.2459 27.279 19.0994 27.535 18.907L30.5765 16.5719C30.6607 16.508 30.7587 16.459 30.865 16.4276C30.9714 16.3962 31.0838 16.383 31.1961 16.3889C31.3083 16.3948 31.4181 16.4196 31.5192 16.4618C31.6202 16.504 31.7106 16.5629 31.7851 16.6351C31.8596 16.7073 31.9168 16.7914 31.9534 16.8825C31.9901 16.9737 32.0054 17.0701 31.9985 17.1663C31.9917 17.2626 31.9628 17.3567 31.9135 17.4433C31.8642 17.53 31.7955 17.6075 31.7113 17.6714L28.6586 19.9189C28.2362 20.2368 27.7444 20.4797 27.2117 20.6333C26.679 20.787 26.116 20.8484 25.5554 20.814C24.9947 20.7796 24.4477 20.6501 23.9459 20.4329C23.4442 20.2158 22.9977 19.9154 22.6324 19.5492L21.3614 18.2454C21.1457 18.0207 20.8799 17.8351 20.5796 17.6995C20.2793 17.5639 19.9504 17.481 19.6123 17.4556C19.2742 17.4303 18.9335 17.463 18.6103 17.5518C18.2871 17.6406 17.9878 17.7838 17.7298 17.973L12.4187 21.7578C12.2608 21.8726 12.058 21.9317 11.8512 21.9232Z" fill="#50C2C9"/>
<path d="M10.6751 36.545C10.5131 36.233 10.2881 35.999 10.0001 35.843C9.71214 35.681 9.37914 35.6 9.00114 35.6C8.58714 35.6 8.21814 35.693 7.89414 35.879C7.57014 36.065 7.31514 36.329 7.12914 36.671C6.94914 37.013 6.85914 37.409 6.85914 37.859C6.85914 38.309 6.94914 38.708 7.12914 39.056C7.31514 39.398 7.57014 39.662 7.89414 39.848C8.21814 40.034 8.58714 40.127 9.00114 40.127C9.55914 40.127 10.0121 39.971 10.3601 39.659C10.7081 39.347 10.9211 38.924 10.9991 38.39H8.65014V37.571H12.0971V38.372C12.0311 38.858 11.8571 39.305 11.5751 39.713C11.2991 40.121 10.9361 40.448 10.4861 40.694C10.0421 40.934 9.54714 41.054 9.00114 41.054C8.41314 41.054 7.87614 40.919 7.39014 40.649C6.90414 40.373 6.51714 39.992 6.22914 39.506C5.94714 39.02 5.80614 38.471 5.80614 37.859C5.80614 37.247 5.94714 36.698 6.22914 36.212C6.51714 35.726 6.90414 35.348 7.39014 35.078C7.88214 34.802 8.41914 34.664 9.00114 34.664C9.66714 34.664 10.2581 34.829 10.7741 35.159C11.2961 35.483 11.6741 35.945 11.9081 36.545H10.6751ZM12.7671 38.498C12.7671 38 12.8691 37.559 13.0731 37.175C13.2831 36.791 13.5651 36.494 13.9191 36.284C14.2791 36.068 14.6751 35.96 15.1071 35.96C15.4971 35.96 15.8361 36.038 16.1241 36.194C16.4181 36.344 16.6521 36.533 16.8261 36.761V36.041H17.8611V41H16.8261V40.262C16.6521 40.496 16.4151 40.691 16.1151 40.847C15.8151 41.003 15.4731 41.081 15.0891 41.081C14.6631 41.081 14.2731 40.973 13.9191 40.757C13.5651 40.535 13.2831 40.229 13.0731 39.839C12.8691 39.443 12.7671 38.996 12.7671 38.498ZM16.8261 38.516C16.8261 38.174 16.7541 37.877 16.6101 37.625C16.4721 37.373 16.2891 37.181 16.0611 37.049C15.8331 36.917 15.5871 36.851 15.3231 36.851C15.0591 36.851 14.8131 36.917 14.5851 37.049C14.3571 37.175 14.1711 37.364 14.0271 37.616C13.8891 37.862 13.8201 38.156 13.8201 38.498C13.8201 38.84 13.8891 39.14 14.0271 39.398C14.1711 39.656 14.3571 39.854 14.5851 39.992C14.8191 40.124 15.0651 40.19 15.3231 40.19C15.5871 40.19 15.8331 40.124 16.0611 39.992C16.2891 39.86 16.4721 39.668 16.6101 39.416C16.7541 39.158 16.8261 38.858 16.8261 38.516ZM20.2347 34.34V41H19.2087V34.34H20.2347ZM22.6077 34.34V41H21.5817V34.34H22.6077ZM28.4998 38.399C28.4998 38.585 28.4878 38.753 28.4638 38.903H24.6748C24.7048 39.299 24.8518 39.617 25.1158 39.857C25.3798 40.097 25.7038 40.217 26.0878 40.217C26.6398 40.217 27.0298 39.986 27.2578 39.524H28.3648C28.2148 39.98 27.9418 40.355 27.5458 40.649C27.1558 40.937 26.6698 41.081 26.0878 41.081C25.6138 41.081 25.1878 40.976 24.8098 40.766C24.4378 40.55 24.1438 40.25 23.9278 39.866C23.7178 39.476 23.6128 39.026 23.6128 38.516C23.6128 38.006 23.7148 37.559 23.9188 37.175C24.1288 36.785 24.4198 36.485 24.7918 36.275C25.1698 36.065 25.6018 35.96 26.0878 35.96C26.5558 35.96 26.9728 36.062 27.3388 36.266C27.7048 36.47 27.9898 36.758 28.1938 37.13C28.3978 37.496 28.4998 37.919 28.4998 38.399ZM27.4288 38.075C27.4228 37.697 27.2878 37.394 27.0238 37.166C26.7598 36.938 26.4328 36.824 26.0428 36.824C25.6888 36.824 25.3858 36.938 25.1338 37.166C24.8818 37.388 24.7318 37.691 24.6838 38.075H27.4288ZM30.5355 36.761C30.6855 36.509 30.8835 36.314 31.1295 36.176C31.3815 36.032 31.6785 35.96 32.0205 35.96V37.022H31.7595C31.3575 37.022 31.0515 37.124 30.8415 37.328C30.6375 37.532 30.5355 37.886 30.5355 38.39V41H29.5095V36.041H30.5355V36.761ZM37.4276 36.041L34.3856 43.331H33.3236L34.3316 40.919L32.3786 36.041H33.5216L34.9166 39.821L36.3656 36.041H37.4276Z" fill="white"/>
</svg>
