<svg width="31" height="29" viewBox="0 0 31 29" fill="none" xmlns="http://www.w3.org/2000/svg">
<path d="M28.7857 11.3929H18.8214V2.07143C18.8214 0.927612 17.8298 0 16.6071 0H14.3929C13.1702 0 12.1786 0.927612 12.1786 2.07143V11.3929H2.21429C0.991585 11.3929 0 12.3205 0 13.4643V15.5357C0 16.6795 0.991585 17.6071 2.21429 17.6071H12.1786V26.9286C12.1786 28.0724 13.1702 29 14.3929 29H16.6071C17.8298 29 18.8214 28.0724 18.8214 26.9286V17.6071H28.7857C30.0084 17.6071 31 16.6795 31 15.5357V13.4643C31 12.3205 30.0084 11.3929 28.7857 11.3929Z" fill="#2E9DA4"/>
</svg>
