<svg width="153" height="152" viewBox="0 0 153 152" fill="none" xmlns="http://www.w3.org/2000/svg">
<g clip-path="url(#clip0_26_168)">
<path d="M34.3155 25.3842L33.149 31.391L38.9645 32.9991L38.2419 26.5861L34.3155 25.3842Z" fill="#A0616A"/>
<path d="M0 149.725C0 149.914 0.154563 150.066 0.347036 150.066H152.653C152.845 150.066 153 149.914 153 149.725C153 149.537 152.845 149.385 152.653 149.385H0.347036C0.154563 149.385 0 149.537 0 149.725Z" fill="#3F3D56"/>
<path d="M103.825 68.1655H43.8494C37.0481 68.1655 31.5346 73.5736 31.5346 80.2449V137.29C31.5346 143.962 37.0481 149.37 43.8493 149.37H103.825C110.626 149.37 116.14 143.962 116.14 137.29V80.2448C116.14 73.5736 110.626 68.1655 103.825 68.1655Z" fill="white"/>
<path d="M103.825 149.656H43.8494C36.8982 149.656 31.243 144.109 31.243 137.29V80.2449C31.243 73.4266 36.8982 67.8795 43.8494 67.8795H103.825C110.776 67.8795 116.431 73.4266 116.431 80.2449V137.29C116.431 144.109 110.776 149.656 103.825 149.656ZM43.8494 68.4515C37.2197 68.4515 31.8262 73.742 31.8262 80.2449V137.29C31.8262 143.793 37.2197 149.084 43.8494 149.084H103.825C110.454 149.084 115.848 143.793 115.848 137.29V80.2449C115.848 73.742 110.454 68.4515 103.825 68.4515L43.8494 68.4515Z" fill="#3F3D56"/>
<path d="M108.169 92.8968H84.0623C83.0398 92.8968 82.2079 92.0808 82.2079 91.0778C82.2079 90.0749 83.0398 89.2589 84.0623 89.2589H108.169C109.192 89.2589 110.024 90.0749 110.024 91.0778C110.024 92.0808 109.192 92.8968 108.169 92.8968Z" fill="#66FFFF"/>
<path d="M85.5537 107.201H62.1207C61.5299 107.201 61.0492 106.729 61.0492 106.15C61.0492 105.57 61.5299 105.099 62.1207 105.099H85.5537C86.1445 105.099 86.625 105.57 86.625 106.15C86.625 106.729 86.1445 107.201 85.5537 107.201Z" fill="#66FFFF"/>
<path d="M52.4334 72.0722H39.0549C39.005 72.0722 38.9645 72.1119 38.9645 72.1609V73.6886C38.9645 73.7376 39.005 73.7773 39.0549 73.7773H52.4334C52.4834 73.7773 52.5239 73.7376 52.5239 73.6886V72.1609C52.5239 72.1119 52.4834 72.0722 52.4334 72.0722Z" fill="#66FFFF"/>
<path d="M97.4964 73.7773C98.2645 73.7773 98.8871 73.1666 98.8871 72.4132C98.8871 71.6598 98.2645 71.0491 97.4964 71.0491C96.7284 71.0491 96.1057 71.6598 96.1057 72.4132C96.1057 73.1666 96.7284 73.7773 97.4964 73.7773Z" fill="#3F3D56"/>
<path d="M101.321 73.7773C102.089 73.7773 102.712 73.1666 102.712 72.4132C102.712 71.6598 102.089 71.0491 101.321 71.0491C100.553 71.0491 99.9302 71.6598 99.9302 72.4132C99.9302 73.1666 100.553 73.7773 101.321 73.7773Z" fill="#3F3D56"/>
<path d="M105.145 73.7773C105.913 73.7773 106.536 73.1666 106.536 72.4132C106.536 71.6598 105.913 71.0491 105.145 71.0491C104.377 71.0491 103.755 71.6598 103.755 72.4132C103.755 73.1666 104.377 73.7773 105.145 73.7773Z" fill="#3F3D56"/>
<path d="M43.7034 112.826C43.7034 113.015 43.8579 113.167 44.0504 113.167H103.624C103.816 113.167 103.971 113.015 103.971 112.826C103.971 112.638 103.816 112.486 103.624 112.486H44.0504C43.8579 112.486 43.7034 112.638 43.7034 112.826Z" fill="#3F3D56"/>
<path d="M61.8722 28.8662C63.1404 27.8382 64.7092 27.6469 65.376 28.4387C66.0428 29.2305 65.5551 30.7054 64.2862 31.7335C63.7851 32.1511 63.1894 32.4448 62.5488 32.5901L57.119 36.879L55.1215 34.3367L60.6864 30.3786C60.9528 29.7888 61.3594 29.2702 61.8722 28.8662Z" fill="#A0616A"/>
<path d="M30.4888 38.5428C30.4861 38.3532 30.4879 36.6987 31.7366 35.653C33.171 34.4518 35.195 34.938 35.905 35.1085C37.5449 35.5025 37.6794 36.1925 39.2194 36.9015C42.1007 38.228 38.4906 37.549 40.205 37.1237C40.7985 36.9765 49.336 36.3957 51.4612 35.1127C55.5943 32.6174 58.4105 31.1043 58.4105 31.1043L60.2515 34.7159C60.2515 34.7159 57.5894 38.3468 53.8428 41.0366C49.9995 43.7957 48.0779 45.1752 45.1576 45.7083C44.9061 45.7542 38.721 46.79 33.7395 43.1394C32.6032 42.3067 30.5213 40.781 30.4888 38.5428Z" fill="#E6E6E6"/>
<path d="M36.1997 29.3576C39.7417 29.3576 42.613 26.5412 42.613 23.0669C42.613 19.5926 39.7417 16.7761 36.1997 16.7761C32.6577 16.7761 29.7864 19.5926 29.7864 23.0669C29.7864 26.5412 32.6577 29.3576 36.1997 29.3576Z" fill="#A0616A"/>
<path d="M86.4264 65.3306L79.8216 58.699L76.4121 62.1875L81.333 68.546L86.2139 69.0936L86.4264 65.3306Z" fill="#A0616A"/>
<path d="M48.7125 52.8948C49.0989 52.9263 50.3265 53.1675 51.4999 52.5343C52.3007 52.1021 52.7114 51.4595 52.8501 51.2552C54.571 48.7199 61.1763 44.7665 67.1044 44.5232C68.4468 44.4681 69.3304 44.6207 70.1336 45.0314C71.2725 45.6137 71.7271 46.4478 73.1723 48.4017C73.9628 49.4706 74.8375 50.4775 75.6376 51.5395C80.3214 57.7569 82.0971 58.245 81.9156 60.2382C81.7142 62.4498 79.2826 64.548 77.6665 64.3057C77.0046 64.2065 76.7483 63.7551 75.864 62.8413C73.2713 60.1617 72.1986 60.6568 70.3526 58.6044C68.1974 56.2082 68.4796 54.2214 67.3552 54.1447C66.3124 54.0735 65.8693 55.7684 63.6432 58.02C62.6246 59.0503 61.8992 59.5229 59.6894 61.0267C51.0837 66.8827 50.9464 67.2943 49.2097 67.7613C48.4498 67.9656 43.0568 69.4159 41.1356 67.108C38.1293 63.4963 45.2316 52.6111 48.7125 52.8948Z" fill="#2F2E41"/>
<path d="M84.4072 66.8291C84.8929 66.6152 85.4609 66.365 85.6437 65.7897C85.7673 65.4005 85.6961 64.9205 85.4405 64.5888C85.1456 64.2061 84.7091 64.1557 84.7268 64.088C84.7537 63.9849 85.7858 64.0252 86.9189 64.4181C87.1327 64.4922 88.1013 64.8394 89.3335 65.7829C90.3207 66.5389 90.1878 66.6904 90.8069 67.1263C92.7071 68.4644 94.4894 67.4098 95.5177 68.6646C95.9145 69.1489 96.0837 69.8365 95.9167 70.3925C95.5814 71.5089 93.9504 71.8932 93.0591 72.0915C90.9124 72.5693 89.2875 72.1793 87.5909 71.8988C81.8209 70.9451 78.5789 71.8137 78.145 70.5025C78.0629 70.2544 78.1963 70.2755 78.6412 68.4544C79.0803 66.657 79.0659 66.1634 79.4399 66.0194C80.0028 65.8028 80.3808 66.7883 81.7989 67.1256C83.0555 67.4245 84.0924 66.9678 84.4072 66.8291Z" fill="#2F2E41"/>
<path d="M74.6841 87.0251L73.0153 77.8998L68.1971 78.9084L68.6287 86.8802L72.354 90.0218L74.6841 87.0251Z" fill="#A0616A"/>
<path d="M50.5969 55.9621C50.8985 56.2009 51.7763 57.0768 53.1097 57.1991C54.0197 57.2826 54.7275 56.9771 54.9592 56.8844C57.8346 55.7345 65.5633 56.1015 70.6078 59.1654C71.7502 59.8592 72.394 60.4722 72.8235 61.2543C73.4324 62.3635 73.3311 63.3041 73.4083 65.7169C73.4506 67.0367 73.5979 68.3517 73.652 69.6711C73.9683 77.3956 75.1581 78.7775 73.8669 80.3268C72.4342 82.0459 69.221 82.4427 68.0224 81.3521C67.5315 80.9055 67.5778 80.3907 67.3693 79.1475C66.7579 75.5022 65.5869 75.321 65.2344 72.606C64.8228 69.4362 66.1937 67.9476 65.3072 67.2648C64.4852 66.6316 63.1482 67.79 60.0172 68.4269C58.5846 68.7183 57.7138 68.7099 55.0244 68.737C44.5512 68.8425 44.2019 69.1074 42.4975 68.5373C41.7518 68.2878 36.4591 66.5173 36.1907 63.5494C35.7707 58.905 47.879 53.81 50.5969 55.9621Z" fill="#2F2E41"/>
<path d="M72.1553 87.1529C72.6798 87.2434 73.293 87.3492 73.7735 86.9739C74.0987 86.7199 74.3145 86.2835 74.2929 85.8683C74.268 85.3892 73.9357 85.107 73.9891 85.0607C74.0703 84.9903 74.9013 85.5921 75.6139 86.5413C75.7484 86.7204 76.3512 87.5412 76.8306 89.0006C77.2146 90.1699 77.018 90.2221 77.2806 90.9238C78.087 93.0776 80.1655 93.1867 80.2979 94.7914C80.349 95.4107 80.0955 96.0728 79.639 96.4409C78.7223 97.18 77.1529 96.5996 76.3018 96.2727C74.252 95.4856 73.1308 94.268 71.8874 93.1014C67.659 89.1341 64.4792 88.0671 64.8708 86.7432C64.9449 86.4926 65.0432 86.5836 66.4539 85.3218C67.8462 84.0764 68.1168 83.66 68.5087 83.7469C69.0985 83.8777 68.8471 84.9013 69.8274 85.9615C70.6961 86.901 71.8155 87.0942 72.1553 87.1529Z" fill="#2F2E41"/>
<path d="M37.0741 24.2695C37.3238 23.3934 37.0102 23.0742 37.3298 22.681C37.3298 22.6809 37.4584 22.5227 38.6083 22.0957C38.2691 20.1648 38.5231 19.8383 38.5231 19.8383C38.8159 19.462 39.4024 19.3711 39.8016 19.4203C40.6461 19.5244 40.7956 20.2732 41.3359 20.2564C42.0823 20.2331 42.9775 18.7676 42.6997 17.4973C42.473 16.4612 41.4956 15.6917 41.2506 15.8252C41.0077 15.9576 40.1333 15.3738 39.8016 15.4908C39.5752 15.5706 38.5091 15.4644 38.2674 15.5744C38.0034 15.6945 37.2474 16.4424 37.1752 16.3482C36.6729 15.6933 36.6836 15.4647 36.3922 15.3235C35.8758 15.0734 35.3145 15.5357 34.3465 15.9924C32.3549 16.9321 31.7718 16.3715 30.8519 17.1629C30.3872 17.5627 30.138 18.3266 29.6586 19.8383C28.9881 21.9524 28.6529 23.0094 28.9767 24.0187C29.3069 25.0479 29.7932 24.8239 30.5109 26.2761C31.3099 27.8925 31.0345 28.8321 31.7895 29.2023C32.3729 29.4884 33.3106 29.3063 33.6646 28.7843C34.2708 27.8905 32.7041 26.6814 33.2385 25.2728C33.5665 24.4081 34.5784 23.7525 35.1989 23.9351C35.9005 24.1415 35.9522 25.3755 36.3922 25.3564C36.769 25.34 37.0306 24.4221 37.0741 24.2695Z" fill="#2F2E41"/>
<path d="M32.2156 30.2892C33.528 28.8458 38.8737 30.3398 39.3754 32.6302C39.5818 33.5723 38.8199 33.9701 39.0345 35.0548C39.3483 36.6414 41.1251 36.5332 42.4439 38.1482C44.3163 40.4411 42.3874 42.6825 44.4896 46.5089C44.9388 47.3266 45.3174 48.0158 46.1091 48.6827C47.9257 50.2132 49.6163 49.6883 50.5413 51.1073C51.2331 52.1685 50.9489 53.4764 50.8823 53.7827C50.6093 55.039 49.8694 55.3452 49.348 56.3746C48.4806 58.0873 49.4627 59.3447 49.5185 61.391C49.5883 63.9513 48.2012 67.5003 45.4272 68.6648C42.3107 69.973 38.552 67.8063 36.7331 65.6549C35.6478 64.3712 35.3327 63.187 34.8579 61.7254C32.7359 55.1931 31.537 55.7839 29.9142 50.6057C28.0591 44.6861 27.6944 37.751 29.9142 35.5564C30.2085 35.2656 31.0182 34.5932 31.5337 33.3826C32.2274 31.7536 31.6281 30.9353 32.2156 30.2892Z" fill="#E6E6E6"/>
<path d="M51.6075 63.8892C52.625 65.1573 52.7828 66.7002 51.9599 67.3352C51.137 67.9703 49.6454 67.457 48.6277 66.1883C48.2141 65.687 47.9289 65.0958 47.796 64.4642L43.5539 59.0378L45.7458 57.3978L50.0942 62.6904C50.689 62.9657 51.2079 63.3768 51.6075 63.8892Z" fill="#A0616A"/>
<path d="M36.0717 35.79C36.2604 35.7487 37.912 35.4128 39.2104 36.3985C40.702 37.5308 40.6297 39.5736 40.6044 40.2901C40.5458 41.9452 39.8846 42.2152 39.4912 43.8387C38.7553 46.8761 40.1568 49.6988 40.9312 51.2583C41.1992 51.7982 42.0603 53.4499 43.7744 55.2288C47.1082 58.6886 50.0827 60.5091 50.0827 60.5091L46.8872 63.2952C46.8872 63.2952 41.7971 61.7734 38.3481 58.7245C34.8103 55.597 29.3696 44.5316 28.2418 41.8361C28.1446 41.6039 29.5205 45.3778 32.1474 39.8494C32.7467 38.5883 33.8445 36.2779 36.0717 35.79Z" fill="#E6E6E6"/>
<path d="M79.8856 120.619C77.8545 120.924 76.3687 122.199 76.5671 123.467C76.7654 124.735 78.5725 125.515 80.6043 125.209C81.4176 125.098 82.192 124.797 82.8626 124.333L91.4518 122.932L90.8785 119.602L82.3087 120.791C81.5266 120.545 80.6957 120.485 79.8856 120.619Z" fill="#FFB6B6"/>
<path d="M116.898 110.238L113.568 117.17L96.8251 122.698L82.932 123.425L82.584 120.152L97.641 117.064L113.091 109.903L116.898 110.238Z" fill="#E6E6E6"/>
<path d="M86.0184 136.559L83.0283 143.978L79.1588 141.39L81.4454 133.626L86.0184 136.559Z" fill="#FFB6B6"/>
<path d="M73.5304 133.799L65.6154 141.217L68.7814 144.495L76.8722 138.285L73.5304 133.799Z" fill="#FFB6B6"/>
<path d="M118.382 109.645L118.294 109.041L116.271 105.16L109.587 106.885L110.819 112.233L118.382 109.645Z" fill="#FFB6B6"/>
<path d="M115.568 135.524L115.773 138.115C115.773 138.115 116.623 148.981 109.763 149.844C102.904 150.706 99.9135 151.569 95.8681 144.841L89.5362 133.799L85.8377 138.115L80.9177 134.316C80.9177 134.316 84.4354 120.859 87.2496 120.342C87.6014 120.277 87.9532 120.245 88.2995 120.238C90.6293 120.19 92.8254 121.308 94.2194 123.14L102.2 133.626L105.102 132.332L115.568 135.524Z" fill="#2F2E41"/>
<path d="M77.5758 143.633L79.1588 140.7L83.7319 143.805C83.7319 143.805 84.7872 147.601 83.2042 148.119C81.6212 148.636 77.224 147.946 77.224 147.946C77.224 147.946 69.1332 149.671 68.9573 148.119C68.7814 146.566 72.6509 146.221 72.6509 146.221L77.5758 143.633Z" fill="#2F2E41"/>
<path d="M94.8128 141.563L82.5886 134.007L76.3446 139.492L72.1233 134.661C72.1233 134.661 79.8624 123.447 82.1489 122.93C84.4354 122.412 88.1291 122.067 88.1291 122.067L99.3859 132.246L94.8128 141.563Z" fill="#2F2E41"/>
<path d="M65.4396 140.527L69.485 144.841L68.9515 145.288C68.9515 145.288 67.902 149.772 65.4396 148.255C62.9771 146.738 62.8012 146.393 62.8012 146.393C62.8012 146.393 55.7657 147.946 55.0622 145.186C54.3586 142.425 56.2934 142.943 56.2934 142.943L58.0502 143.978L65.4396 140.527Z" fill="#2F2E41"/>
<path d="M111.698 108.783C114.807 108.783 117.326 106.311 117.326 103.262C117.326 100.213 114.807 97.7409 111.698 97.7409C108.59 97.7409 106.07 100.213 106.07 103.262C106.07 106.311 108.59 108.783 111.698 108.783Z" fill="#FFB6B6"/>
<path d="M110.379 111.112L118.47 108.696C118.47 108.696 121.636 115.942 121.108 119.22C120.58 122.498 115.773 138.115 115.773 138.115L105.102 132.332C105.102 132.332 104.926 128.882 104.399 127.329C103.871 125.776 102.2 121.032 105.894 117.064C109.587 113.096 110.379 111.112 110.379 111.112Z" fill="#E6E6E6"/>
<path d="M92.5715 147.339C91.2548 148.886 91.0014 150.807 92.0054 151.629C93.0095 152.451 94.8905 151.862 96.2075 150.314C96.7422 149.703 97.12 148.975 97.309 148.191L102.804 141.566L100.127 139.441L94.5047 145.896C93.752 146.218 93.0891 146.713 92.5715 147.339Z" fill="#FFB6B6"/>
<path d="M116.585 114.592L118.497 122.023L109.137 136.719L99.5824 146.138L96.4855 143.618L106.122 131.857L113.426 116.704L116.585 114.592Z" fill="#E6E6E6"/>
<path d="M106.509 102.313C107.953 102.309 108.035 102.319 108.268 102.313C110.059 102.267 110.527 101.576 111.434 101.623C113.054 101.707 110.916 109.672 110.027 113.355C109.155 116.966 112.102 120.202 112.314 120.428C115.305 123.619 120.558 124.202 121.46 122.843C122.189 121.744 119.603 120.071 120.229 117.668C120.84 115.318 123.661 115.568 124.45 113.355C125.276 111.036 122.5 109.867 120.756 104.211C119.755 100.962 119.932 100.357 118.997 98.3447C116.499 92.9666 104.255 95.2565 105.63 100.243C105.896 101.207 105.188 102.316 106.509 102.313Z" fill="#2F2E41"/>
<path d="M124.482 36.7734H65.3286C63.6557 36.7734 62.2948 35.4383 62.2948 33.7976V2.9758C62.2948 1.33504 63.6557 0 65.3286 0H124.482C126.155 0 127.516 1.33503 127.516 2.9758V33.7976C127.516 35.4383 126.155 36.7734 124.482 36.7734Z" fill="white"/>
<path d="M124.482 36.7734H65.3286C63.6557 36.7734 62.2948 35.4383 62.2948 33.7976V2.9758C62.2948 1.33504 63.6557 0 65.3286 0H124.482C126.155 0 127.516 1.33503 127.516 2.9758V33.7976C127.516 35.4383 126.155 36.7734 124.482 36.7734ZM65.3286 0.496938C63.9351 0.496938 62.8014 1.60898 62.8014 2.9758V33.7976C62.8014 35.1644 63.9351 36.2764 65.3286 36.2764H124.482C125.876 36.2764 127.009 35.1644 127.009 33.7976V2.9758C127.009 1.60898 125.876 0.496938 124.482 0.496938H65.3286Z" fill="#3F3D56"/>
<path d="M119.917 3.72703C120.336 3.72703 120.677 3.3933 120.677 2.98163C120.677 2.56995 120.336 2.23622 119.917 2.23622C119.497 2.23622 119.157 2.56995 119.157 2.98163C119.157 3.3933 119.497 3.72703 119.917 3.72703Z" fill="#3F3D56"/>
<path d="M121.943 3.72703C122.363 3.72703 122.703 3.3933 122.703 2.98163C122.703 2.56995 122.363 2.23622 121.943 2.23622C121.523 2.23622 121.183 2.56995 121.183 2.98163C121.183 3.3933 121.523 3.72703 121.943 3.72703Z" fill="#3F3D56"/>
<path d="M123.97 3.72703C124.389 3.72703 124.73 3.3933 124.73 2.98163C124.73 2.56995 124.389 2.23622 123.97 2.23622C123.55 2.23622 123.21 2.56995 123.21 2.98163C123.21 3.3933 123.55 3.72703 123.97 3.72703Z" fill="#3F3D56"/>
<path d="M66.6011 15.0323C66.3916 15.0323 66.2211 15.1995 66.2211 15.4051C66.2211 15.5053 66.2606 15.598 66.3322 15.6664C66.4044 15.7389 66.499 15.7778 66.6011 15.7778H123.463C123.673 15.7778 123.843 15.6106 123.843 15.4051C123.843 15.3048 123.804 15.2121 123.732 15.1437C123.66 15.0712 123.565 15.0323 123.463 15.0323H66.6011Z" fill="#E6E6E6"/>
<path d="M116.37 14.9081V15.902H66.601C66.4617 15.902 66.3351 15.8473 66.2439 15.7554C66.1501 15.666 66.0944 15.5417 66.0944 15.4051C66.0944 15.1317 66.3224 14.9081 66.601 14.9081H116.37Z" fill="#66FFFF"/>
<path d="M122.83 13.0446H117.764C117.205 13.0446 116.75 12.5989 116.75 12.0507C116.75 11.5026 117.205 11.0569 117.764 11.0569H122.83C123.388 11.0569 123.843 11.5026 123.843 12.0507C123.843 12.5989 123.388 13.0446 122.83 13.0446Z" fill="#E6E6E6"/>
<path d="M89.6461 7.82677H66.981C66.4223 7.82677 65.9678 7.38103 65.9678 6.8329C65.9678 6.28476 66.4223 5.83902 66.981 5.83902H89.6461C90.2048 5.83902 90.6594 6.28476 90.6594 6.8329C90.6594 7.38103 90.2048 7.82677 89.6461 7.82677Z" fill="#E6E6E6"/>
<path d="M66.6011 26.2134C66.3916 26.2134 66.2211 26.3806 66.2211 26.5861C66.2211 26.6864 66.2606 26.779 66.3322 26.8475C66.4044 26.92 66.499 26.9588 66.6011 26.9588H123.463C123.673 26.9588 123.843 26.7917 123.843 26.5861C123.843 26.4859 123.804 26.3932 123.732 26.3248C123.66 26.2523 123.565 26.2134 123.463 26.2134H66.6011Z" fill="#E6E6E6"/>
<path d="M96.8655 26.0892V27.0831H66.601C66.4617 27.0831 66.3351 27.0284 66.2439 26.9365C66.1501 26.847 66.0944 26.7228 66.0944 26.5862C66.0944 26.3128 66.3224 26.0892 66.601 26.0892H96.8655Z" fill="#66FFFF"/>
<path d="M122.83 24.2257H117.764C117.205 24.2257 116.75 23.78 116.75 23.2318C116.75 22.6837 117.205 22.2379 117.764 22.2379H122.83C123.388 22.2379 123.843 22.6837 123.843 23.2318C123.843 23.78 123.388 24.2257 122.83 24.2257Z" fill="#E6E6E6"/>
</g>
<defs>
<clipPath id="clip0_26_168">
<rect width="153" height="152" fill="white"/>
</clipPath>
</defs>
</svg>
