<svg width="274" height="264" viewBox="0 0 274 264" fill="none" xmlns="http://www.w3.org/2000/svg">
<g clip-path="url(#clip0_19_2)">
<path d="M261.181 91.4179L259.974 90.9746L271.455 55.9615C273.218 50.5871 272.891 44.6945 270.548 39.5799C268.205 34.4652 264.037 30.5476 258.961 28.6887L258.96 28.6884L188.897 3.03463C183.821 1.17578 178.253 1.528 173.417 4.01381C168.582 6.49962 164.876 10.9154 163.113 16.2897L163.113 16.2907L100.132 208.376C99.2593 211.037 98.8903 213.853 99.0459 216.664C99.2016 219.475 99.8788 222.225 101.039 224.757C102.199 227.29 103.82 229.555 105.808 231.424C107.796 233.293 110.113 234.728 112.626 235.648L112.627 235.649L182.689 261.304C187.765 263.163 193.333 262.81 198.168 260.324C203.003 257.838 206.709 253.422 208.472 248.048L251.801 115.899L253.008 116.341L261.181 91.4179Z" fill="#3F3D56"/>
<path d="M258.001 34.2443L248.856 30.8955C248.919 32.1412 248.691 33.3844 248.193 34.5156C247.694 35.6469 246.941 36.6315 245.999 37.3826C245.057 38.1337 243.955 38.6284 242.791 38.823C241.626 39.0175 240.435 38.9061 239.321 38.4985L199.184 23.8011C198.071 23.393 197.07 22.7013 196.269 21.787C195.468 20.8726 194.892 19.7636 194.592 18.5577C194.292 17.3517 194.277 16.0858 194.548 14.8715C194.819 13.6571 195.368 12.5316 196.146 11.5939L187.605 8.46606C183.814 7.078 179.655 7.34117 176.044 9.19769C172.433 11.0542 169.665 14.352 168.349 18.3656L105.459 210.168C104.143 214.182 104.386 218.583 106.136 222.402C107.886 226.222 110.999 229.148 114.79 230.536L185.189 256.314C188.98 257.702 193.138 257.439 196.749 255.583C200.36 253.726 203.128 250.428 204.444 246.415L267.333 54.6116C268.649 50.5979 268.405 46.1972 266.655 42.3776C264.905 38.558 261.792 35.6324 258.001 34.2443Z" fill="white"/>
<path d="M239.666 98.6207L164.537 71.11C164.169 70.9745 163.866 70.6897 163.696 70.318C163.525 69.9463 163.501 69.5182 163.629 69.1275L170.099 49.3948C170.227 49.0045 170.497 48.6838 170.848 48.5031C171.2 48.3225 171.604 48.2967 171.973 48.4313L247.103 75.9423C247.472 76.0778 247.774 76.3626 247.945 76.7343C248.115 77.106 248.139 77.5341 248.011 77.9248L241.541 97.6568C241.413 98.0472 241.143 98.3679 240.792 98.5485C240.441 98.7291 240.036 98.755 239.667 98.6203L239.666 98.6207ZM171.78 49.0212C171.559 48.9404 171.316 48.9559 171.105 49.0643C170.894 49.1728 170.733 49.3652 170.655 49.5994L164.186 69.3314C164.109 69.5659 164.123 69.8227 164.226 70.0457C164.328 70.2687 164.509 70.4396 164.731 70.5208L239.86 98.0318C240.081 98.1126 240.324 98.097 240.535 97.9886C240.746 97.8802 240.907 97.6878 240.985 97.4535L247.455 77.7226C247.532 77.4882 247.518 77.2313 247.415 77.0083C247.313 76.7853 247.132 76.6144 246.91 76.5332L171.78 49.0212Z" fill="#3F3D56"/>
<path d="M214.068 176.693L138.939 149.183C138.57 149.047 138.267 148.762 138.097 148.391C137.927 148.019 137.903 147.591 138.03 147.2L150.006 110.676C150.135 110.286 150.404 109.965 150.756 109.784C151.107 109.604 151.511 109.578 151.88 109.712L227.01 137.222C227.379 137.358 227.682 137.643 227.852 138.014C228.022 138.386 228.046 138.814 227.918 139.205L215.942 175.73C215.814 176.12 215.544 176.441 215.193 176.621C214.842 176.802 214.437 176.828 214.068 176.693ZM151.687 110.301C151.466 110.221 151.223 110.236 151.012 110.345C150.801 110.453 150.64 110.645 150.563 110.88L138.587 147.404C138.51 147.638 138.525 147.895 138.627 148.118C138.729 148.341 138.911 148.512 139.132 148.593L214.262 176.104C214.483 176.185 214.726 176.17 214.937 176.061C215.148 175.953 215.309 175.76 215.386 175.526L227.363 139.001C227.439 138.767 227.425 138.51 227.323 138.287C227.22 138.064 227.039 137.893 226.818 137.812L151.687 110.301Z" fill="#3F3D56"/>
<path d="M229.063 129.057L195.673 116.828C195.304 116.693 195.002 116.408 194.831 116.036C194.661 115.665 194.637 115.237 194.765 114.846L201.235 95.1139C201.363 94.7235 201.633 94.4029 201.984 94.2222C202.335 94.0416 202.74 94.0157 203.109 94.1504L236.5 106.379C236.869 106.514 237.171 106.799 237.342 107.171C237.512 107.542 237.536 107.97 237.408 108.361L230.938 128.093C230.81 128.484 230.54 128.805 230.189 128.986C229.837 129.166 229.432 129.192 229.063 129.057ZM202.916 94.7409C202.694 94.6602 202.452 94.6757 202.241 94.7841C202.03 94.8925 201.868 95.085 201.791 95.3192L195.322 115.051C195.245 115.286 195.259 115.542 195.362 115.765C195.464 115.988 195.645 116.159 195.867 116.241L229.258 128.467C229.479 128.548 229.722 128.533 229.932 128.424C230.143 128.316 230.305 128.123 230.382 127.889L236.852 108.157C236.928 107.923 236.914 107.666 236.812 107.443C236.71 107.22 236.528 107.049 236.307 106.968L202.916 94.7409Z" fill="#E6E6E6"/>
<path d="M156.681 209.137L123.291 196.91C122.922 196.775 122.619 196.49 122.449 196.118C122.279 195.747 122.255 195.319 122.382 194.928L134.455 158.108C134.583 157.718 134.853 157.397 135.204 157.217C135.556 157.036 135.96 157.01 136.329 157.145L169.72 169.372C170.088 169.507 170.391 169.792 170.561 170.164C170.732 170.535 170.756 170.963 170.628 171.354L158.555 208.174C158.426 208.564 158.157 208.885 157.805 209.065C157.454 209.246 157.05 209.272 156.681 209.137ZM136.135 157.734C135.914 157.653 135.671 157.668 135.46 157.777C135.249 157.885 135.088 158.078 135.01 158.312L122.938 195.131C122.861 195.366 122.876 195.623 122.978 195.846C123.08 196.069 123.262 196.24 123.483 196.321L156.874 208.548C157.095 208.629 157.338 208.613 157.549 208.505C157.76 208.396 157.921 208.204 157.998 207.97L170.071 171.15C170.147 170.916 170.133 170.659 170.031 170.436C169.929 170.213 169.747 170.042 169.526 169.961L136.135 157.734Z" fill="#E6E6E6"/>
<path d="M197.863 224.217L164.472 211.99C164.103 211.855 163.8 211.57 163.63 211.198C163.46 210.826 163.436 210.398 163.563 210.008L175.636 173.188C175.764 172.798 176.034 172.477 176.385 172.296C176.737 172.116 177.141 172.09 177.51 172.224L210.901 184.452C211.27 184.587 211.573 184.872 211.743 185.244C211.913 185.615 211.937 186.044 211.809 186.434L199.737 223.253C199.609 223.644 199.339 223.965 198.988 224.145C198.636 224.326 198.232 224.352 197.863 224.217ZM177.317 172.814C177.096 172.733 176.853 172.748 176.642 172.857C176.431 172.965 176.27 173.158 176.193 173.392L164.12 210.212C164.043 210.446 164.058 210.703 164.16 210.926C164.262 211.149 164.444 211.32 164.665 211.401L198.056 223.629C198.277 223.709 198.52 223.694 198.731 223.585C198.942 223.477 199.103 223.284 199.18 223.05L211.253 186.231C211.329 185.996 211.315 185.739 211.213 185.516C211.111 185.293 210.929 185.123 210.708 185.041L177.317 172.814Z" fill="#E6E6E6"/>
<path d="M158.69 133.07C162.003 133.104 164.718 130.289 164.754 126.783C164.79 123.277 162.134 120.406 158.821 120.372C155.508 120.338 152.792 123.153 152.756 126.659C152.72 130.166 155.377 133.036 158.69 133.07Z" fill="#63FFFF"/>
<path d="M173.155 127.514C172.904 127.422 172.629 127.439 172.391 127.562C172.152 127.685 171.969 127.903 171.882 128.168C171.795 128.433 171.811 128.724 171.927 128.977C172.043 129.229 172.248 129.422 172.499 129.514L217.028 145.82C217.152 145.865 217.284 145.884 217.415 145.876C217.546 145.868 217.674 145.832 217.792 145.771C217.91 145.711 218.016 145.626 218.103 145.522C218.191 145.418 218.258 145.297 218.301 145.165C218.344 145.034 218.362 144.895 218.354 144.756C218.347 144.618 218.313 144.482 218.256 144.357C218.199 144.232 218.119 144.12 218.021 144.028C217.923 143.936 217.808 143.865 217.684 143.819L173.155 127.514Z" fill="#E6E6E6"/>
<path d="M171.188 133.514C171.064 133.469 170.933 133.45 170.802 133.458C170.671 133.466 170.542 133.502 170.424 133.563C170.306 133.623 170.2 133.708 170.113 133.812C170.026 133.916 169.959 134.037 169.916 134.168C169.873 134.3 169.854 134.439 169.862 134.577C169.87 134.716 169.903 134.852 169.961 134.977C170.018 135.102 170.098 135.214 170.196 135.306C170.294 135.398 170.408 135.469 170.532 135.514L189.694 142.531C189.818 142.576 189.949 142.596 190.08 142.587C190.211 142.579 190.339 142.543 190.458 142.483C190.576 142.422 190.681 142.337 190.769 142.233C190.856 142.129 190.923 142.008 190.966 141.877C191.009 141.745 191.027 141.606 191.02 141.468C191.012 141.329 190.979 141.193 190.921 141.068C190.864 140.943 190.784 140.831 190.686 140.739C190.588 140.647 190.474 140.576 190.349 140.531L171.188 133.514Z" fill="#E6E6E6"/>
<path d="M150.607 136.723C149.888 136.46 149.157 136.694 148.976 137.247C148.795 137.8 149.233 138.461 149.951 138.724L211.388 161.221C212.107 161.484 212.838 161.25 213.019 160.697C213.2 160.144 212.762 159.483 212.044 159.22L150.607 136.723Z" fill="#E6E6E6"/>
<path d="M148.639 142.723C147.921 142.46 147.189 142.695 147.008 143.248C146.828 143.801 147.265 144.462 147.984 144.725L209.421 167.222C210.139 167.485 210.871 167.25 211.052 166.697C211.233 166.145 210.795 165.483 210.076 165.22L148.639 142.723Z" fill="#E6E6E6"/>
<path d="M180.112 69.6375C183.425 69.6717 186.14 66.8568 186.176 63.3503C186.213 59.8438 183.556 56.9736 180.243 56.9395C176.93 56.9053 174.215 59.7202 174.179 63.2267C174.143 66.7332 176.799 69.6034 180.112 69.6375Z" fill="#63FFFF"/>
<path d="M194.578 64.0808C194.454 64.0354 194.322 64.0162 194.191 64.0245C194.06 64.0328 193.932 64.0684 193.814 64.1291C193.695 64.1899 193.59 64.2746 193.502 64.3786C193.415 64.4825 193.348 64.6036 193.305 64.735C193.262 64.8663 193.244 65.0053 193.251 65.144C193.259 65.2828 193.293 65.4185 193.35 65.5435C193.407 65.6685 193.487 65.7803 193.585 65.8725C193.683 65.9647 193.798 66.0356 193.922 66.081L238.451 82.3865C238.575 82.432 238.707 82.4511 238.838 82.4428C238.969 82.4345 239.097 82.399 239.215 82.3382C239.333 82.2775 239.439 82.1927 239.526 82.0887C239.614 81.9848 239.681 81.8637 239.724 81.7323C239.767 81.601 239.785 81.462 239.777 81.3233C239.77 81.1846 239.736 81.0488 239.679 80.9238C239.622 80.7989 239.542 80.6871 239.444 80.5948C239.345 80.5026 239.231 80.4317 239.107 80.3863L194.578 64.0808Z" fill="#E6E6E6"/>
<path d="M192.61 70.0815C192.486 70.0361 192.355 70.0169 192.224 70.0252C192.093 70.0335 191.964 70.0691 191.846 70.1298C191.728 70.1906 191.622 70.2753 191.535 70.3793C191.448 70.4832 191.381 70.6043 191.338 70.7357C191.295 70.867 191.276 71.006 191.284 71.1447C191.292 71.2835 191.325 71.4192 191.382 71.5442C191.44 71.6692 191.52 71.781 191.618 71.8732C191.716 71.9654 191.83 72.0363 191.954 72.0817L211.115 79.0982C211.24 79.1437 211.371 79.1628 211.502 79.1545C211.633 79.1462 211.761 79.1107 211.879 79.0499C211.998 78.9892 212.103 78.9044 212.191 78.8004C212.278 78.6965 212.345 78.5754 212.388 78.444C212.431 78.3127 212.449 78.1737 212.442 78.035C212.434 77.8962 212.401 77.7605 212.343 77.6355C212.286 77.5105 212.206 77.3987 212.108 77.3065C212.01 77.2143 211.895 77.1434 211.771 77.098L192.61 70.0815Z" fill="#E6E6E6"/>
<path d="M187.851 113.97L156.528 102.5L168.332 91.6803C168.543 91.4863 168.799 91.3546 169.074 91.2985C169.349 91.2423 169.633 91.2637 169.897 91.3605C170.161 91.4572 170.397 91.6259 170.58 91.8497C170.763 92.0734 170.887 92.3442 170.939 92.6349L172.195 99.563L180.769 91.7032C181.034 91.4605 181.354 91.2957 181.698 91.2255C182.042 91.1553 182.397 91.1821 182.728 91.3033C183.059 91.4244 183.354 91.6356 183.583 91.9157C183.812 92.1957 183.967 92.5347 184.033 92.8986L187.851 113.97ZM157.685 102.263L187.081 113.028L183.454 93.0182C183.408 92.7618 183.298 92.523 183.137 92.3257C182.975 92.1284 182.768 91.9796 182.535 91.8943C182.301 91.809 182.051 91.7901 181.809 91.8395C181.567 91.8889 181.341 92.005 181.154 92.176L171.808 100.742L170.361 92.7534C170.327 92.5702 170.249 92.3995 170.134 92.2585C170.019 92.1175 169.87 92.0112 169.704 91.9502C169.537 91.8892 169.358 91.8757 169.185 91.9111C169.012 91.9465 168.851 92.0295 168.717 92.1517L157.685 102.263Z" fill="#E6E6E6"/>
<path d="M187.882 113.977L154.491 101.75C154.123 101.614 153.82 101.33 153.65 100.958C153.479 100.586 153.455 100.158 153.583 99.7674L160.053 80.0354C160.181 79.645 160.451 79.3244 160.802 79.1437C161.153 78.9631 161.558 78.9373 161.927 79.0719L195.318 91.2991C195.687 91.4346 195.989 91.7195 196.16 92.0911C196.33 92.4628 196.354 92.8909 196.226 93.2816L189.756 113.013C189.628 113.404 189.358 113.724 189.007 113.905C188.656 114.086 188.251 114.111 187.882 113.977ZM161.734 79.6608C161.512 79.58 161.27 79.5955 161.059 79.7039C160.848 79.8123 160.686 80.0048 160.609 80.239L154.14 99.971C154.063 100.205 154.078 100.462 154.18 100.685C154.282 100.908 154.464 101.079 154.685 101.16L188.076 113.388C188.297 113.468 188.54 113.453 188.751 113.344C188.962 113.236 189.123 113.044 189.2 112.809L195.67 93.0774C195.747 92.8429 195.733 92.5861 195.63 92.3631C195.528 92.1401 195.347 91.9692 195.125 91.888L161.734 79.6608Z" fill="#E6E6E6"/>
<path d="M140.953 167.343C140.829 167.297 140.698 167.278 140.567 167.286C140.436 167.294 140.307 167.329 140.189 167.39C140.07 167.451 139.965 167.536 139.877 167.64C139.79 167.744 139.723 167.865 139.68 167.996C139.637 168.128 139.618 168.267 139.626 168.406C139.634 168.545 139.667 168.68 139.725 168.805C139.782 168.93 139.862 169.042 139.961 169.135C140.059 169.227 140.173 169.297 140.298 169.343L159.459 176.359C159.709 176.451 159.984 176.433 160.222 176.31C160.46 176.187 160.643 175.97 160.73 175.705C160.817 175.44 160.801 175.149 160.685 174.897C160.57 174.644 160.365 174.451 160.115 174.359L140.953 167.343Z" fill="#E6E6E6"/>
<path d="M139.021 173.235C138.897 173.189 138.766 173.17 138.635 173.178C138.503 173.186 138.375 173.222 138.257 173.282C138.138 173.343 138.033 173.428 137.945 173.532C137.858 173.636 137.791 173.757 137.748 173.888C137.704 174.02 137.686 174.159 137.694 174.298C137.702 174.437 137.735 174.573 137.793 174.698C137.85 174.823 137.93 174.935 138.028 175.027C138.127 175.119 138.241 175.19 138.365 175.235L157.527 182.253C157.777 182.344 158.051 182.326 158.289 182.203C158.528 182.08 158.71 181.862 158.797 181.598C158.884 181.333 158.868 181.043 158.753 180.791C158.638 180.538 158.433 180.345 158.183 180.253L139.021 173.235Z" fill="#E6E6E6"/>
<path d="M193.237 214.019C193.488 214.11 193.762 214.093 194.001 213.97C194.239 213.847 194.422 213.63 194.508 213.364C194.595 213.099 194.579 212.809 194.464 212.557C194.349 212.304 194.143 212.111 193.893 212.019L174.732 205.002C174.482 204.911 174.207 204.929 173.969 205.051C173.73 205.174 173.548 205.392 173.461 205.657C173.374 205.922 173.39 206.213 173.505 206.465C173.621 206.717 173.826 206.911 174.076 207.003L193.237 214.019Z" fill="#E6E6E6"/>
<path d="M195.169 208.127C195.293 208.172 195.425 208.192 195.556 208.183C195.687 208.175 195.816 208.14 195.934 208.079C196.052 208.018 196.158 207.934 196.245 207.83C196.333 207.726 196.4 207.604 196.443 207.473C196.486 207.341 196.504 207.202 196.497 207.063C196.489 206.925 196.455 206.789 196.398 206.664C196.341 206.539 196.26 206.427 196.162 206.335C196.064 206.242 195.949 206.172 195.825 206.126L176.664 199.11C176.54 199.064 176.408 199.045 176.277 199.053C176.146 199.061 176.018 199.097 175.899 199.157C175.781 199.218 175.675 199.303 175.588 199.407C175.5 199.511 175.433 199.632 175.39 199.764C175.347 199.895 175.329 200.034 175.337 200.173C175.344 200.312 175.378 200.448 175.435 200.573C175.493 200.698 175.573 200.81 175.671 200.902C175.769 200.994 175.884 201.065 176.008 201.11L195.169 208.127Z" fill="#E6E6E6"/>
<path d="M226.181 113.745C226.305 113.791 226.436 113.81 226.567 113.802C226.698 113.794 226.827 113.758 226.945 113.697C227.064 113.637 227.169 113.552 227.257 113.448C227.344 113.344 227.411 113.223 227.454 113.091C227.497 112.96 227.516 112.821 227.508 112.682C227.5 112.543 227.467 112.407 227.409 112.282C227.352 112.157 227.272 112.045 227.173 111.953C227.075 111.861 226.961 111.79 226.836 111.745L207.675 104.728C207.551 104.683 207.42 104.663 207.289 104.671C207.157 104.68 207.029 104.715 206.911 104.776C206.792 104.836 206.687 104.921 206.599 105.025C206.512 105.129 206.445 105.25 206.402 105.382C206.358 105.513 206.34 105.652 206.348 105.791C206.356 105.93 206.389 106.066 206.447 106.191C206.504 106.316 206.584 106.428 206.682 106.52C206.781 106.612 206.895 106.683 207.019 106.728L226.181 113.745Z" fill="#E6E6E6"/>
<path d="M224.534 118.463C224.658 118.509 224.79 118.528 224.921 118.52C225.052 118.512 225.18 118.476 225.299 118.415C225.417 118.355 225.523 118.27 225.61 118.166C225.698 118.062 225.765 117.941 225.808 117.809C225.851 117.678 225.869 117.539 225.861 117.4C225.854 117.261 225.82 117.125 225.763 117C225.705 116.875 225.625 116.763 225.527 116.671C225.429 116.579 225.314 116.508 225.19 116.463L206.029 109.446C205.905 109.401 205.773 109.381 205.642 109.39C205.511 109.398 205.383 109.433 205.264 109.494C205.146 109.555 205.04 109.639 204.953 109.743C204.865 109.847 204.798 109.969 204.755 110.1C204.712 110.231 204.694 110.371 204.702 110.509C204.709 110.648 204.743 110.784 204.8 110.909C204.858 111.034 204.938 111.146 205.036 111.238C205.134 111.33 205.249 111.401 205.373 111.447L224.534 118.463Z" fill="#E6E6E6"/>
<path d="M63.6001 105.146C69.2172 105.204 73.8204 100.432 73.8817 94.4868C73.9429 88.5418 69.4389 83.6755 63.8218 83.6177C58.2047 83.5598 53.6015 88.3323 53.5402 94.2773C53.479 100.222 57.9829 105.089 63.6001 105.146Z" fill="#9F616A"/>
<path d="M57.8182 95.6532C58.6249 95.6105 59.4092 95.9064 60.2088 96.0279C63.0693 96.4599 66.0716 94.2907 66.735 91.3131C66.7898 90.9162 66.9057 90.5314 67.0781 90.1741C67.5269 89.4167 68.5324 89.282 69.3582 89.4657C70.1839 89.6494 70.9645 90.0673 71.8069 90.123C73.1076 90.2088 74.3658 89.3735 75.0715 88.2129C75.7393 87.0149 76.0324 85.6246 75.9088 84.2407L75.2776 84.9272C75.0299 84.3569 74.9386 83.7244 75.0139 83.1015C74.6842 83.0049 74.3365 82.9995 74.0041 83.0858C73.6717 83.1722 73.3657 83.3474 73.1154 83.5947C72.5645 83.6509 72.9917 82.5135 72.5874 82.1146C72.3899 81.9833 72.1534 81.934 71.9234 81.9762C70.7529 81.976 69.8159 81.019 68.9015 80.2469C67.3172 78.9119 65.4579 77.9906 63.4739 77.5573C62.1552 77.2707 60.7503 77.2127 59.4917 77.7192C58.4751 78.1894 57.5549 78.8656 56.7831 79.7094C54.8003 81.6845 53.0385 84.0146 52.1941 86.7546C51.5072 88.999 51.4636 91.4077 52.0688 93.6767C52.3855 94.8549 53.3355 98.8891 54.7859 98.9978C56.6069 99.1352 55.5471 95.7732 57.8182 95.6532Z" fill="#2F2E41"/>
<path d="M42.8602 180.361C43.4284 179.957 43.9063 179.427 44.2602 178.807C44.6141 178.187 44.8353 177.493 44.9084 176.773C44.9814 176.053 44.9044 175.326 44.6829 174.641C44.4614 173.957 44.1007 173.332 43.6263 172.811L45.8825 129.96L36.6325 130.962L36.7374 172.902C35.9625 173.805 35.5271 174.976 35.5136 176.195C35.5001 177.414 35.9096 178.595 36.6643 179.515C37.4191 180.434 38.4667 181.028 39.6087 181.185C40.7506 181.341 41.9075 181.048 42.8602 180.362L42.8602 180.361Z" fill="#A0616A"/>
<path d="M58.9665 253.104L64.2146 254.137L69.6278 233.189L62.7532 231.674L58.9665 253.104Z" fill="#A0616A"/>
<path d="M73.3875 261.295L56.8921 258.035L58.0897 251.288L68.212 253.289C69.9022 253.623 71.3971 254.654 72.3677 256.155C73.3383 257.657 73.7051 259.505 73.3875 261.295Z" fill="#2F2E41"/>
<path d="M44.5055 255.742L49.8439 255.797L52.608 234.029L44.729 233.947L44.5055 255.742Z" fill="#A0616A"/>
<path d="M60.0813 261.149L43.3024 260.976L43.373 254.115L53.6693 254.221C55.3886 254.239 57.0301 254.979 58.2326 256.278C59.4351 257.577 60.1001 259.33 60.0813 261.149Z" fill="#2F2E41"/>
<path d="M66.8605 248.159C66.7772 248.159 66.694 248.153 66.6114 248.141L60.3331 247.529C59.7741 247.454 59.2664 247.147 58.9219 246.675C58.5774 246.203 58.4243 245.606 58.4962 245.014C58.5007 244.976 58.5061 244.939 58.5125 244.902L65.0878 212.39L61.3925 190.47C61.3626 190.291 61.2727 190.131 61.1394 190.017C61.0062 189.904 60.8385 189.845 60.6676 189.852C60.4966 189.86 60.3337 189.932 60.2092 190.057C60.0846 190.181 60.0068 190.349 59.99 190.529L53.6437 246.065C53.5839 246.65 53.3116 247.188 52.8844 247.565C52.4572 247.943 51.9085 248.13 51.354 248.087L45.4364 247.793C44.918 247.748 44.4331 247.505 44.0732 247.108C43.7134 246.711 43.5034 246.188 43.483 245.638L44.6479 178.461L75.3824 174.717L77.1655 209.785L77.1565 209.822L68.9433 246.462C68.8255 246.951 68.5563 247.384 68.1786 247.691C67.801 247.999 67.3368 248.164 66.8605 248.159Z" fill="#2F2E41"/>
<path d="M64.7919 183.782C63.1186 183.775 61.4826 183.261 60.0776 182.301C54.932 178.821 49.0334 180.122 45.9752 181.209C45.6717 181.318 45.349 181.353 45.0311 181.311C44.7132 181.27 44.4084 181.153 44.1395 180.969C43.8737 180.788 43.6501 180.546 43.4853 180.261C43.3205 179.976 43.2188 179.655 43.1879 179.322L38.1882 126.895C37.35 118.111 42.4289 109.914 50.2644 107.403C50.5587 107.309 50.8579 107.219 51.1619 107.135C53.5991 106.463 56.1453 106.364 58.6212 106.845C61.0972 107.327 63.4427 108.376 65.4929 109.921C67.5815 111.482 69.3209 113.509 70.5886 115.86C71.8563 118.21 72.6216 120.827 72.8306 123.525L76.9528 176.293C76.9808 176.634 76.9334 176.978 76.8144 177.298C76.6954 177.617 76.508 177.903 76.2669 178.132C74.6154 179.717 69.8271 183.833 64.7919 183.782Z" fill="#63FFFF"/>
<path d="M48.389 138.231L35.9045 136.648C35.5493 136.603 35.2075 136.478 34.9025 136.28C34.5974 136.083 34.3363 135.818 34.1368 135.504C33.9373 135.19 33.8041 134.834 33.7464 134.46C33.6887 134.086 33.7077 133.704 33.8023 133.338L37.116 120.537C37.2219 119.582 37.5046 118.658 37.9479 117.818C38.3912 116.978 38.9865 116.239 39.6997 115.642C40.4129 115.045 41.2301 114.603 42.1045 114.341C42.9789 114.078 43.8934 114.001 44.7957 114.112C45.698 114.224 46.5704 114.523 47.3632 114.992C48.1559 115.461 48.8534 116.091 49.4157 116.845C49.978 117.6 50.3942 118.465 50.6404 119.39C50.8866 120.315 50.958 121.283 50.8506 122.238C50.8475 122.266 50.8443 122.293 50.8409 122.321L51.1771 135.542C51.1866 135.92 51.1189 136.296 50.9786 136.645C50.8383 136.994 50.6287 137.306 50.3641 137.561C50.0995 137.817 49.7862 138.008 49.4453 138.124C49.1045 138.24 48.7442 138.276 48.389 138.231Z" fill="#63FFFF"/>
<path d="M76.8741 178.875C77.3925 178.402 77.8066 177.815 78.0875 177.155C78.3683 176.494 78.509 175.777 78.4996 175.053C78.4902 174.329 78.331 173.617 78.0331 172.965C77.7353 172.314 77.306 171.74 76.7756 171.284L74.1363 128.463L65.0614 130.526L69.9464 172.251C69.2801 173.246 68.9814 174.464 69.1068 175.676C69.2323 176.887 69.7732 178.007 70.6271 178.823C71.4811 179.64 72.5886 180.096 73.74 180.106C74.8914 180.115 76.0067 179.677 76.8744 178.875L76.8741 178.875Z" fill="#A0616A"/>
<path d="M61.537 135.676C61.2774 135.416 61.0742 135.099 60.9411 134.747C60.8081 134.396 60.7484 134.018 60.7661 133.639L61.3744 120.428C61.1997 118.504 61.7518 116.583 62.9102 115.086C64.0686 113.589 65.7392 112.638 67.5569 112.44C69.3746 112.241 71.1917 112.812 72.6113 114.028C74.0309 115.244 74.9375 117.005 75.1332 118.927L78.1826 131.794C78.2695 132.161 78.2807 132.544 78.2153 132.917C78.1499 133.289 78.0094 133.642 77.8035 133.952C77.5976 134.262 77.331 134.521 77.022 134.713C76.7129 134.904 76.3687 135.022 76.0126 135.06L63.4982 136.386C63.1421 136.423 62.7825 136.38 62.444 136.257C62.1056 136.134 61.7962 135.936 61.537 135.675L61.537 135.676Z" fill="#63FFFF"/>
<path d="M235.892 262.968L0.00695801 260.539L-8.40188e-06 261.215L235.885 263.645L235.892 262.968Z" fill="#CACACA"/>
</g>
<defs>
<clipPath id="clip0_19_2">
<rect width="270.382" height="261.229" fill="white" transform="translate(2.69046) rotate(0.590113)"/>
</clipPath>
</defs>
</svg>
