<svg width="20" height="21" viewBox="0 0 20 21" fill="none" xmlns="http://www.w3.org/2000/svg">
<path d="M17.5349 6.78462L16.814 20.1231C16.7907 20.6077 16.3721 21 15.8837 21H4.11628C3.62791 21 3.2093 20.6077 3.18605 20.1231L2.46512 6.78462C2.44186 6.27692 2.83721 5.83846 3.34884 5.81538C3.86047 5.79231 4.30233 6.18462 4.32558 6.69231L5 19.1538H15.0233L15.6977 6.69231C15.7209 6.18462 16.1628 5.79231 16.6744 5.81538C17.1628 5.83846 17.5581 6.27692 17.5349 6.78462ZM20 3.69231C20 4.2 19.5814 4.61538 19.0698 4.61538H0.930233C0.418605 4.61538 0 4.2 0 3.69231C0 3.18462 0.418605 2.76923 0.930233 2.76923H6.04651V0.692308C6.04651 0.253846 6.34884 0 6.7907 0H13.2093C13.6512 0 13.9535 0.253846 13.9535 0.692308V2.76923H19.0698C19.5814 2.76923 20 3.18462 20 3.69231ZM7.67442 2.76923H12.3256V1.61538H7.67442V2.76923ZM8.06977 17.7692C8.53488 17.7692 8.88372 17.3308 8.88372 16.8923L8.65116 6.92308C8.65116 6.48462 8.27907 6.11538 7.81395 6.11538C7.37209 6.11538 7 6.48462 7.02326 6.94615L7.25581 16.9385C7.25581 17.3769 7.62791 17.7692 8.06977 17.7692ZM11.907 17.7692C12.3488 17.7692 12.7209 17.4 12.7209 16.9615L12.9535 6.99231C12.9535 6.55385 12.6047 6.16154 12.1628 6.16154C11.6977 6.16154 11.3488 6.50769 11.3256 6.94615L11.093 16.9154C11.0698 17.3769 11.4419 17.7692 11.907 17.7692C11.8837 17.7692 11.8837 17.7692 11.907 17.7692Z" fill="#EEEEEE"/>
</svg>
