<svg width="43" height="46" viewBox="0 0 43 46" fill="none" xmlns="http://www.w3.org/2000/svg">
<path d="M38 0H5C2.23858 0 0 2.23857 0 5V41C0 43.7614 2.23858 46 5 46H38C40.7614 46 43 43.7614 43 41V5C43 2.23858 40.7614 0 38 0Z" fill="#DEEAEB"/>
<path d="M29.4116 14.8154L28.6547 26.2484C28.6302 26.6637 28.1907 27 27.6779 27H15.3221C14.8093 27 14.3698 26.6637 14.3453 26.2484L13.5884 14.8154C13.564 14.3802 13.9791 14.0044 14.5163 13.9846C15.0535 13.9648 15.5174 14.3011 15.5419 14.7363L16.25 25.4176H26.7744L27.4826 14.7363C27.507 14.3011 27.9709 13.9648 28.5081 13.9846C29.0209 14.0044 29.436 14.3802 29.4116 14.8154ZM32 12.1648C32 12.6 31.5605 12.956 31.0233 12.956H11.9767C11.4395 12.956 11 12.6 11 12.1648C11 11.7297 11.4395 11.3736 11.9767 11.3736H17.3488V9.59341C17.3488 9.21758 17.6663 9 18.1302 9H24.8698C25.3337 9 25.6512 9.21758 25.6512 9.59341V11.3736H31.0233C31.5605 11.3736 32 11.7297 32 12.1648ZM19.0581 11.3736H23.9419V10.3846H19.0581V11.3736ZM19.4733 24.2308C19.9616 24.2308 20.3279 23.8549 20.3279 23.4791L20.0837 14.9341C20.0837 14.5582 19.693 14.2418 19.2047 14.2418C18.7407 14.2418 18.35 14.5582 18.3744 14.9538L18.6186 23.5187C18.6186 23.8945 19.0093 24.2308 19.4733 24.2308ZM23.5023 24.2308C23.9663 24.2308 24.357 23.9143 24.357 23.5385L24.6012 14.9934C24.6012 14.6176 24.2349 14.2813 23.7709 14.2813C23.2826 14.2813 22.9163 14.578 22.8919 14.9538L22.6477 23.4989C22.6233 23.8945 23.014 24.2308 23.5023 24.2308C23.4779 24.2308 23.4779 24.2308 23.5023 24.2308Z" fill="#50C2C9"/>
<path d="M7.38787 41L5.94787 38.498H5.16487V41H4.13887V34.745H6.29887C6.77887 34.745 7.18387 34.829 7.51387 34.997C7.84987 35.165 8.09887 35.39 8.26087 35.672C8.42887 35.954 8.51287 36.269 8.51287 36.617C8.51287 37.025 8.39287 37.397 8.15287 37.733C7.91887 38.063 7.55587 38.288 7.06387 38.408L8.61187 41H7.38787ZM5.16487 37.679H6.29887C6.68287 37.679 6.97087 37.583 7.16287 37.391C7.36087 37.199 7.45987 36.941 7.45987 36.617C7.45987 36.293 7.36387 36.041 7.17187 35.861C6.97987 35.675 6.68887 35.582 6.29887 35.582H5.16487V37.679ZM14.3704 38.399C14.3704 38.585 14.3584 38.753 14.3344 38.903H10.5454C10.5754 39.299 10.7224 39.617 10.9864 39.857C11.2504 40.097 11.5744 40.217 11.9584 40.217C12.5104 40.217 12.9004 39.986 13.1284 39.524H14.2354C14.0854 39.98 13.8124 40.355 13.4164 40.649C13.0264 40.937 12.5404 41.081 11.9584 41.081C11.4844 41.081 11.0584 40.976 10.6804 40.766C10.3084 40.55 10.0144 40.25 9.79839 39.866C9.58839 39.476 9.48339 39.026 9.48339 38.516C9.48339 38.006 9.58539 37.559 9.78939 37.175C9.99939 36.785 10.2904 36.485 10.6624 36.275C11.0404 36.065 11.4724 35.96 11.9584 35.96C12.4264 35.96 12.8434 36.062 13.2094 36.266C13.5754 36.47 13.8604 36.758 14.0644 37.13C14.2684 37.496 14.3704 37.919 14.3704 38.399ZM13.2994 38.075C13.2934 37.697 13.1584 37.394 12.8944 37.166C12.6304 36.938 12.3034 36.824 11.9134 36.824C11.5594 36.824 11.2564 36.938 11.0044 37.166C10.7524 37.388 10.6024 37.691 10.5544 38.075H13.2994ZM21.3831 35.96C21.7731 35.96 22.1211 36.041 22.4271 36.203C22.7391 36.365 22.9821 36.605 23.1561 36.923C23.3361 37.241 23.4261 37.625 23.4261 38.075V41H22.4091V38.228C22.4091 37.784 22.2981 37.445 22.0761 37.211C21.8541 36.971 21.5511 36.851 21.1671 36.851C20.7831 36.851 20.4771 36.971 20.2491 37.211C20.0271 37.445 19.9161 37.784 19.9161 38.228V41H18.8991V38.228C18.8991 37.784 18.7881 37.445 18.5661 37.211C18.3441 36.971 18.0411 36.851 17.6571 36.851C17.2731 36.851 16.9671 36.971 16.7391 37.211C16.5171 37.445 16.4061 37.784 16.4061 38.228V41H15.3801V36.041H16.4061V36.608C16.5741 36.404 16.7871 36.245 17.0451 36.131C17.3031 36.017 17.5791 35.96 17.8731 35.96C18.2691 35.96 18.6231 36.044 18.9351 36.212C19.2471 36.38 19.4871 36.623 19.6551 36.941C19.8051 36.641 20.0391 36.404 20.3571 36.23C20.6751 36.05 21.0171 35.96 21.3831 35.96ZM26.8826 41.081C26.4146 41.081 25.9916 40.976 25.6136 40.766C25.2356 40.55 24.9386 40.25 24.7226 39.866C24.5066 39.476 24.3986 39.026 24.3986 38.516C24.3986 38.012 24.5096 37.565 24.7316 37.175C24.9536 36.785 25.2566 36.485 25.6406 36.275C26.0246 36.065 26.4536 35.96 26.9276 35.96C27.4016 35.96 27.8306 36.065 28.2146 36.275C28.5986 36.485 28.9016 36.785 29.1236 37.175C29.3456 37.565 29.4566 38.012 29.4566 38.516C29.4566 39.02 29.3426 39.467 29.1146 39.857C28.8866 40.247 28.5746 40.55 28.1786 40.766C27.7886 40.976 27.3566 41.081 26.8826 41.081ZM26.8826 40.19C27.1466 40.19 27.3926 40.127 27.6206 40.001C27.8546 39.875 28.0436 39.686 28.1876 39.434C28.3316 39.182 28.4036 38.876 28.4036 38.516C28.4036 38.156 28.3346 37.853 28.1966 37.607C28.0586 37.355 27.8756 37.166 27.6476 37.04C27.4196 36.914 27.1736 36.851 26.9096 36.851C26.6456 36.851 26.3996 36.914 26.1716 37.04C25.9496 37.166 25.7726 37.355 25.6406 37.607C25.5086 37.853 25.4426 38.156 25.4426 38.516C25.4426 39.05 25.5776 39.464 25.8476 39.758C26.1236 40.046 26.4686 40.19 26.8826 40.19ZM32.3879 40.082L33.7919 36.041H34.8809L32.9909 41H31.7669L29.8859 36.041H30.9839L32.3879 40.082ZM40.2014 38.399C40.2014 38.585 40.1894 38.753 40.1654 38.903H36.3764C36.4064 39.299 36.5534 39.617 36.8174 39.857C37.0814 40.097 37.4054 40.217 37.7894 40.217C38.3414 40.217 38.7314 39.986 38.9594 39.524H40.0664C39.9164 39.98 39.6434 40.355 39.2474 40.649C38.8574 40.937 38.3714 41.081 37.7894 41.081C37.3154 41.081 36.8894 40.976 36.5114 40.766C36.1394 40.55 35.8454 40.25 35.6294 39.866C35.4194 39.476 35.3144 39.026 35.3144 38.516C35.3144 38.006 35.4164 37.559 35.6204 37.175C35.8304 36.785 36.1214 36.485 36.4934 36.275C36.8714 36.065 37.3034 35.96 37.7894 35.96C38.2574 35.96 38.6744 36.062 39.0404 36.266C39.4064 36.47 39.6914 36.758 39.8954 37.13C40.0994 37.496 40.2014 37.919 40.2014 38.399ZM39.1304 38.075C39.1244 37.697 38.9894 37.394 38.7254 37.166C38.4614 36.938 38.1344 36.824 37.7444 36.824C37.3904 36.824 37.0874 36.938 36.8354 37.166C36.5834 37.388 36.4334 37.691 36.3854 38.075H39.1304Z" fill="black"/>
</svg>
